<?xml version="1.0" standalone="no"?>
<!DOCTYPE svg PUBLIC "-//W3C//DTD SVG 20010904//EN"
 "http://www.w3.org/TR/2001/REC-SVG-20010904/DTD/svg10.dtd">
<svg version="1.0" xmlns="http://www.w3.org/2000/svg"
 width="1699.000000pt" height="599.000000pt" viewBox="0 0 1699.000000 599.000000"
 preserveAspectRatio="xMidYMid meet">
<metadata>
Created by potrace 1.16, written by Peter Selinger 2001-2019
</metadata>
<g transform="translate(0.000000,599.000000) scale(0.100000,-0.100000)"
fill="#0F1020" stroke="none">
<path d="M10085 5571 c-100 -28 -156 -62 -236 -141 -114 -112 -161 -224 -161
-380 1 -153 48 -265 157 -375 115 -116 233 -165 400 -165 162 0 279 47 390
157 113 112 176 279 161 427 -14 135 -62 234 -160 332 -115 115 -238 164 -406
163 -49 0 -110 -8 -145 -18z M400 3005 l0 -2505 480 0 480 0 0 729 0 729 64
59 c205 192 556 407 886 543 470 193 938 280 1504 280 311 0 515 -21 811 -81
159 -33 412 -102 427 -117 5 -5 2 -47 -6 -93 -45 -259 -24 -591 54 -864 112
-392 347 -730 659 -949 203 -142 398 -227 676 -292 117 -28 126 -29 405 -29
274 1 290 2 410 29 170 37 312 86 455 156 162 79 259 145 374 255 l96 92 42
-86 c46 -94 139 -204 221 -264 175 -127 404 -183 648 -158 183 18 282 45 421
112 122 59 117 44 121 359 2 170 0 275 -7 293 -18 46 -50 53 -144 34 -45 -9
-121 -17 -168 -17 -190 0 -276 67 -326 252 -15 57 -17 182 -20 1316 l-4 1252
-415 0 -414 0 0 -206 0 -206 -78 73 c-44 41 -114 99 -158 131 -96 68 -287 165
-408 208 -377 131 -940 122 -1327 -20 -280 -103 -516 -255 -707 -454 -45 -47
-82 -89 -82 -93 0 -5 48 -26 108 -47 243 -89 525 -224 716 -344 85 -54 101
-61 116 -50 197 146 341 204 560 229 331 38 659 -79 875 -312 188 -204 274
-480 246 -789 -13 -136 -43 -246 -102 -363 -70 -140 -139 -224 -264 -322 -192
-150 -428 -223 -690 -212 -151 7 -253 29 -381 84 -281 122 -490 376 -554 671
-62 290 -9 601 140 816 17 26 28 51 25 56 -12 19 -210 131 -370 209 -446 219
-918 364 -1395 430 -498 69 -1096 49 -1558 -50 -502 -108 -1021 -313 -1393
-551 -42 -26 -79 -48 -82 -48 -4 0 -7 592 -7 1315 l0 1315 -480 0 -480 0 0
-2505z M3760 4630 l0 -880 31 0 c87 0 441 -22 559 -35 120 -14 324 -47 373
-61 16 -5 17 44 17 925 l0 931 -490 0 -490 0 0 -880z M11420 3005 l0 -2505
470 0 470 0 0 2353 c0 1295 3 2422 7 2505 l6 152 -476 0 -477 0 0 -2505z
M14590 4129 c-585 -29 -1088 -282 -1417 -716 -78 -102 -103 -142 -168 -271
-67 -133 -99 -216 -131 -344 -106 -418 -79 -912 68 -1276 61 -149 126 -265
216 -385 335 -445 812 -681 1471 -728 131 -9 215 -10 364 -1 497 30 883 158
1212 402 85 64 245 206 245 219 0 8 -505 462 -521 469 -4 2 -47 -27 -96 -64
-89 -67 -291 -172 -408 -213 -136 -47 -357 -81 -525 -81 -444 0 -800 157
-1002 441 -62 87 -133 236 -157 329 l-19 75 1421 5 1421 5 10 40 c14 63 13
496 -2 600 -60 400 -223 738 -481 995 -368 367 -859 530 -1501 499z m325 -774
c319 -48 573 -222 703 -481 32 -64 77 -194 88 -256 l6 -38 -995 0 -995 0 9 41
c56 247 220 478 428 602 207 123 488 172 756 132z M9810 2270 l0 -1770 475 0
475 0 0 1770 0 1770 -475 0 -475 0 0 -1770z M3760 1587 l0 -1087 490 0 490 0
0 1024 0 1025 -52 14 c-192 54 -470 91 -775 104 l-153 6 0 -1086z"/>
</g>
</svg>
